<?xml version="1.0" standalone="no"?>
<!DOCTYPE svg PUBLIC "-//W3C//DTD SVG 20010904//EN"
 "http://www.w3.org/TR/2001/REC-SVG-20010904/DTD/svg10.dtd">
<svg version="1.0" xmlns="http://www.w3.org/2000/svg"
 width="2148.000000pt" height="843.000000pt" viewBox="0 0 2148.000000 843.000000"
 preserveAspectRatio="xMidYMid meet">
<metadata>
Created by potrace 1.14, written by Peter Selinger 2001-2017
</metadata>
<g transform="translate(0.000000,843.000000) scale(0.100000,-0.100000)"
fill="#000000" stroke="none">
<path d="M21475 4215 c0 -2321 1 -3269 2 -2107 2 1163 2 3062 0 4220 -1 1159
-2 208 -2 -2113z"/>
<path d="M4180 7704 c-249 -32 -434 -77 -560 -136 -47 -22 -103 -48 -125 -58
-76 -33 -90 -40 -195 -105 -58 -35 -110 -64 -116 -65 -6 0 -22 -8 -35 -18 -13
-11 -49 -32 -79 -49 -31 -17 -97 -59 -148 -94 -51 -35 -107 -74 -125 -86 -17
-12 -44 -32 -59 -45 -15 -13 -34 -22 -43 -20 -8 2 -15 -4 -15 -13 0 -10 -9
-19 -20 -22 -11 -3 -20 -9 -20 -14 0 -5 -8 -9 -18 -9 -10 0 -37 -18 -60 -40
-22 -22 -45 -40 -50 -40 -5 0 -35 -23 -68 -50 -110 -94 -181 -150 -190 -150
-15 0 -65 -43 -76 -67 -7 -15 -33 -42 -58 -60 -122 -89 -397 -349 -457 -432
-15 -22 -48 -67 -73 -100 -25 -33 -58 -79 -74 -102 -16 -23 -44 -51 -63 -62
-23 -13 -31 -23 -24 -30 10 -10 -1 -36 -31 -72 -9 -11 -41 -67 -70 -125 -30
-58 -66 -125 -80 -150 -28 -48 -65 -165 -93 -292 -27 -121 -8 -258 52 -385 25
-53 125 -173 144 -173 4 0 29 -23 55 -50 72 -77 167 -135 285 -174 142 -48
247 -64 483 -77 111 -5 211 -14 223 -19 20 -8 21 -13 12 -37 -12 -32 -4 -88
17 -117 8 -11 14 -33 14 -49 0 -33 26 -60 123 -124 l69 -46 125 -8 c151 -11
531 4 563 21 17 9 24 9 30 0 5 -9 29 -8 96 5 49 9 104 19 122 22 17 3 32 8 32
12 0 4 19 5 43 4 32 -2 37 -1 22 6 -15 7 -3 10 44 10 41 1 70 6 80 15 9 8 59
22 111 30 52 9 145 25 205 36 61 11 198 36 305 54 107 19 262 46 343 61 82 14
191 30 244 34 56 5 98 13 103 20 5 9 9 8 14 -4 3 -9 10 -14 14 -11 11 6 335
51 482 66 181 18 243 30 283 56 20 13 37 30 37 38 0 7 10 26 22 41 26 33 28
78 5 103 -9 10 -17 31 -17 45 0 20 -6 28 -25 33 -14 3 -132 4 -263 1 -284 -6
-548 -38 -1002 -122 -162 -30 -362 -66 -445 -79 -82 -14 -224 -39 -315 -55
-381 -69 -717 -109 -999 -118 -181 -6 -195 -5 -207 12 -8 11 -14 29 -14 42 0
27 4 28 150 43 477 50 820 144 1240 340 74 35 137 66 140 69 13 15 238 121
257 121 13 0 27 -10 34 -22 19 -38 116 -148 167 -190 86 -72 120 -82 267 -82
l130 -1 165 57 c91 31 233 85 315 121 258 111 879 412 1235 598 107 56 247
123 310 150 63 27 129 55 145 63 17 8 57 26 90 40 343 143 436 178 630 236 72
21 191 57 265 79 152 46 310 83 310 72 0 -4 -21 -17 -47 -30 -58 -28 -232
-132 -368 -219 -123 -80 -210 -145 -390 -296 l-140 -117 -6 78 c-9 118 -18
153 -40 153 -21 0 -24 11 -8 27 7 7 1 14 -22 22 -48 16 -94 13 -120 -8 -21
-17 -24 -29 -27 -103 -4 -83 -4 -83 38 -145 22 -34 51 -65 63 -69 53 -16 50
-23 -51 -128 -139 -145 -205 -229 -246 -318 -30 -64 -36 -88 -36 -142 0 -92
23 -176 57 -204 47 -39 83 -54 112 -47 34 8 71 43 71 67 0 28 43 107 91 169
153 196 476 494 512 472 5 -3 17 -24 27 -47 45 -105 158 -214 340 -328 l64
-40 -25 -14 c-14 -7 -73 -23 -130 -34 -89 -19 -130 -21 -288 -18 l-185 3 -8
-30 c-11 -40 6 -116 39 -177 20 -36 40 -56 81 -80 l54 -31 59 17 c73 20 109
20 156 1 19 -8 55 -15 78 -15 24 0 51 -3 60 -7 14 -5 12 -8 -11 -19 l-29 -12
36 -1 c48 -1 218 43 272 71 98 49 127 77 162 154 39 85 63 97 86 42 14 -36 99
-122 139 -143 14 -7 61 -21 104 -30 173 -39 407 8 686 135 171 78 182 80 224
38 19 -18 53 -43 77 -56 51 -27 42 -32 206 110 340 295 568 448 808 543 101
40 125 46 125 31 0 -6 -40 -62 -89 -123 -49 -62 -94 -126 -100 -144 -19 -55
-14 -180 11 -244 17 -46 28 -60 60 -76 21 -11 41 -26 44 -34 5 -11 -13 -72
-46 -160 -39 -107 -43 -126 -48 -273 -5 -185 5 -234 85 -394 29 -59 53 -112
53 -116 0 -10 131 -136 180 -173 67 -50 23 -59 -165 -35 -247 33 -377 47 -515
56 -156 11 -1016 11 -1480 1 -375 -8 -640 4 -640 30 0 25 244 112 408 145 160
32 246 33 411 4 l134 -24 31 35 c30 32 33 40 34 112 3 110 -18 167 -83 219
-106 86 -227 115 -439 105 -271 -12 -687 -160 -819 -291 -133 -132 -146 -158
-148 -297 -2 -137 52 -260 156 -357 68 -64 126 -91 258 -119 97 -21 453 -24
1237 -9 602 11 956 -3 1540 -59 274 -27 691 -98 879 -149 25 -8 69 -19 96 -25
28 -7 84 -23 125 -36 130 -40 187 -50 215 -37 14 7 33 12 42 12 31 0 -49 -51
-182 -116 -95 -47 -137 -63 -156 -59 -17 4 -71 -10 -155 -40 -71 -26 -183 -65
-249 -86 -132 -44 -222 -98 -210 -127 3 -9 -2 -31 -12 -50 -17 -32 -17 -34 0
-43 23 -13 22 -42 -3 -64 -18 -16 -19 -20 -6 -27 8 -5 18 -24 22 -43 4 -24 16
-41 45 -59 21 -14 44 -26 50 -26 7 0 21 -7 30 -16 17 -15 24 -15 91 6 40 13
102 37 138 53 72 33 128 48 134 38 2 -3 -16 -33 -41 -66 -136 -181 -260 -404
-293 -530 -7 -27 -17 -55 -21 -61 -5 -6 -11 -37 -15 -70 -4 -32 -10 -66 -14
-74 -11 -20 14 -240 30 -271 7 -13 28 -41 46 -62 19 -20 34 -43 34 -50 0 -21
93 -109 153 -145 44 -27 67 -33 133 -38 77 -6 80 -6 129 27 61 42 88 92 93
177 l4 63 -44 43 c-25 23 -66 53 -93 66 -26 13 -50 31 -52 41 -3 10 -11 20
-18 23 -7 2 -20 24 -30 49 -16 42 -16 46 3 88 11 24 25 60 32 80 44 143 331
479 655 768 182 162 369 350 390 391 27 52 33 213 11 260 -42 87 -26 78 -180
96 -55 6 -64 11 -156 89 -70 60 -120 93 -179 119 -45 20 -88 36 -94 36 -7 0
-18 5 -24 11 -19 19 -291 105 -410 129 -74 16 -101 29 -82 41 8 5 30 9 49 9
96 1 563 119 650 165 14 7 41 19 60 26 70 24 258 123 388 202 73 45 152 93
176 107 23 14 58 37 77 51 19 14 64 47 101 73 90 63 238 186 378 315 163 151
188 171 211 171 11 0 23 -8 26 -17 11 -28 80 -73 112 -73 31 0 109 96 251 310
195 292 333 450 490 562 77 55 140 92 140 84 0 -3 -36 -45 -80 -92 -157 -170
-200 -258 -200 -415 0 -90 3 -105 29 -157 16 -31 42 -68 58 -82 53 -47 112
-90 138 -100 46 -17 183 -12 264 11 90 25 290 114 381 169 36 21 93 55 127 75
l62 36 78 -78 c78 -79 122 -106 222 -138 45 -15 74 -17 185 -11 72 4 141 9
152 12 22 6 31 27 58 141 31 128 139 308 243 403 63 58 123 99 123 84 0 -3
-15 -48 -34 -98 -58 -154 -58 -217 3 -313 27 -43 106 -93 147 -93 12 0 58 34
109 80 177 162 310 270 332 270 7 0 7 -19 1 -57 -12 -71 -3 -153 21 -207 28
-63 96 -142 148 -173 45 -26 55 -28 158 -28 104 1 117 3 248 48 75 26 148 47
161 47 13 0 49 -13 82 -29 85 -44 175 -57 282 -43 197 27 592 145 746 224 82
42 148 103 386 354 74 77 151 122 271 156 65 19 100 22 287 22 l214 1 33 36
c38 42 55 121 35 159 -7 13 -10 38 -6 58 5 31 1 39 -29 68 -22 20 -50 35 -77
40 -78 14 -367 8 -448 -9 -129 -27 -264 -75 -331 -118 -35 -23 -136 -113 -224
-200 -167 -166 -223 -212 -315 -258 -57 -29 -239 -91 -267 -91 -10 0 9 26 49
68 92 95 101 134 71 307 -11 65 -17 73 -59 81 -20 4 -38 13 -41 20 -8 21 -60
17 -154 -10 -251 -73 -399 -176 -526 -367 -38 -57 -53 -71 -101 -92 -65 -29
-171 -61 -178 -54 -3 2 20 33 49 68 30 35 73 91 96 123 39 56 41 63 41 130 0
40 -8 97 -19 131 -15 49 -26 65 -61 90 -38 28 -49 30 -123 30 -71 -1 -100 -7
-220 -48 -75 -26 -196 -74 -267 -108 -72 -33 -135 -57 -140 -54 -5 3 -12 28
-16 55 -4 27 -13 51 -20 54 -8 3 -14 14 -14 25 0 29 -42 74 -100 105 -44 24
-60 28 -110 24 -64 -5 -171 -52 -290 -128 -145 -94 -314 -308 -388 -493 -22
-54 -48 -107 -57 -117 -23 -26 -56 -25 -116 2 -45 21 -49 26 -50 58 -5 124 -7
149 -19 186 -12 38 -12 46 9 95 31 70 32 181 3 257 -32 84 -95 158 -150 177
-80 27 -148 29 -236 6 -44 -12 -85 -21 -93 -21 -7 0 -21 15 -30 34 -21 45 -46
55 -162 66 -160 16 -240 12 -346 -15 -112 -28 -198 -73 -338 -178 -116 -87
-175 -143 -294 -285 -52 -62 -100 -111 -107 -109 -6 2 -12 21 -13 43 -2 21
-12 82 -23 134 -11 52 -22 111 -25 131 -11 72 -56 104 -235 166 -69 24 -84 25
-190 20 -134 -7 -277 -40 -366 -85 -64 -33 -200 -126 -279 -192 -27 -23 -76
-57 -107 -75 -88 -51 -143 -101 -208 -186 -116 -155 -191 -323 -170 -383 12
-36 88 -116 109 -116 8 0 29 11 47 25 44 34 154 171 154 192 0 28 256 272 335
321 103 62 344 179 388 187 24 5 42 3 52 -5 11 -9 21 -8 46 4 54 27 98 19 67
-12 -9 -9 3 -12 55 -12 38 0 67 4 67 10 0 6 -5 10 -12 10 -9 0 -9 3 -1 11 7 7
23 9 37 5 l26 -6 -19 -28 c-11 -15 -25 -56 -31 -92 -18 -98 -66 -212 -131
-309 -194 -291 -757 -749 -1179 -961 -349 -175 -678 -260 -1008 -260 -139 0
-218 11 -331 47 -110 35 -157 71 -201 158 -32 62 -35 75 -34 146 4 200 176
543 425 844 197 238 626 631 1021 936 178 138 443 332 495 364 18 11 73 49
123 83 134 94 446 278 600 354 127 63 414 173 573 219 84 25 343 38 389 20 64
-25 46 -140 -59 -370 -42 -91 -78 -183 -81 -204 -4 -34 -1 -42 27 -67 17 -16
31 -35 31 -43 0 -34 73 -36 121 -4 67 45 154 184 200 322 21 60 24 88 23 200
-1 113 -5 141 -28 212 -15 46 -32 85 -37 88 -5 4 -9 15 -9 25 0 10 -4 20 -9
22 -4 2 -31 30 -58 64 -45 53 -59 63 -118 82 -102 34 -199 45 -297 32 -207
-25 -477 -114 -716 -234 -101 -51 -475 -275 -710 -426 -165 -106 -541 -378
-597 -431 -17 -16 -34 -29 -38 -29 -19 0 -568 -463 -745 -630 -141 -131 -191
-172 -203 -164 -5 3 -9 25 -9 49 0 24 -7 56 -15 72 -8 15 -25 53 -38 83 -21
48 -31 59 -76 83 -43 22 -66 27 -124 27 -149 -1 -364 -68 -612 -191 -88 -43
-165 -79 -171 -79 -5 0 -25 16 -44 35 -69 71 -130 39 -292 -152 -38 -46 -77
-83 -86 -83 -12 0 -22 14 -31 48 -38 136 -47 160 -77 197 -19 25 -56 52 -97
73 -56 27 -85 34 -179 43 -149 15 -357 5 -436 -20 -82 -25 -149 -66 -167 -101
-8 -16 -15 -54 -15 -84 l0 -55 -72 -34 c-185 -86 -297 -215 -316 -363 -4 -32
-12 -59 -18 -61 -7 -2 -25 22 -40 54 -33 65 -154 199 -199 220 -27 12 -62 35
-120 77 -32 22 -10 31 88 35 107 4 150 -7 212 -54 51 -40 77 -43 104 -16 55
55 49 190 -12 290 -41 68 -99 101 -224 127 -78 16 -113 29 -103 37 3 2 52 32
110 67 103 62 200 130 251 177 23 21 25 30 23 81 -6 104 -12 160 -18 171 -13
21 43 40 194 65 414 68 731 96 1089 96 227 0 319 -4 444 -20 219 -28 333 -47
451 -75 56 -14 131 -25 167 -25 60 0 70 3 97 28 31 29 51 82 52 137 1 39 -10
95 -19 95 -4 0 -31 15 -60 34 -110 71 -409 150 -686 180 -286 32 -657 30 -965
-4 -243 -27 -372 -43 -440 -56 -111 -20 -579 -119 -700 -147 -224 -53 -654
-189 -930 -295 -334 -129 -353 -137 -610 -257 -102 -48 -234 -109 -295 -137
-60 -27 -213 -100 -340 -161 -126 -60 -282 -134 -345 -162 -63 -29 -182 -84
-265 -122 -266 -125 -360 -162 -522 -209 -145 -42 -293 -67 -293 -50 0 29 87
143 220 287 106 115 130 152 130 202 0 40 -36 137 -51 137 -5 0 -9 9 -9 20 0
42 -116 82 -174 60 -16 -6 -83 -52 -150 -103 -131 -101 -307 -219 -426 -287
-41 -24 -113 -65 -160 -92 -390 -224 -882 -394 -1305 -452 -306 -41 -844 -48
-1038 -12 -198 37 -373 131 -406 219 -25 66 -7 206 38 295 5 9 35 69 66 132
32 63 70 133 85 155 15 22 51 75 80 119 89 133 157 216 293 356 133 137 341
325 453 409 220 167 302 227 404 296 63 43 133 90 155 105 107 73 340 208 505
293 329 169 576 237 864 237 102 0 152 -13 159 -42 4 -12 -2 -53 -13 -90 -16
-58 -32 -85 -104 -176 -93 -116 -102 -142 -61 -174 14 -11 25 -28 25 -38 0
-22 19 -30 69 -30 31 0 44 8 86 50 27 28 58 50 70 50 14 1 36 25 71 79 48 74
52 85 63 174 15 133 14 177 -6 199 -11 12 -20 45 -24 89 -7 81 -38 133 -109
185 -77 57 -147 76 -295 79 -71 2 -146 1 -165 -1z m11787 -2409 c1 -22 5 -54
8 -72 7 -31 6 -32 -141 -130 -82 -55 -174 -113 -204 -130 -89 -49 -217 -93
-288 -100 l-66 -6 31 39 c125 157 365 333 573 420 73 31 85 28 87 -21z m-6365
-149 c183 -1 209 -3 225 -19 17 -16 14 -20 -58 -90 -60 -60 -95 -84 -179 -125
-123 -61 -255 -98 -377 -107 -141 -10 -147 13 -22 86 95 55 114 85 114 177 0
82 10 97 60 86 17 -3 123 -7 237 -8z"/>
<path d="M688 6211 c-21 -12 -56 -21 -77 -21 -23 0 -46 -7 -55 -16 -20 -20
-21 -68 -1 -84 8 -7 15 -18 15 -25 0 -19 40 -66 66 -75 16 -7 21 -14 17 -29
-5 -20 -1 -21 66 -21 41 0 71 -4 71 -10 0 -6 54 -10 143 -10 126 1 148 3 196
24 46 20 55 28 57 52 1 16 6 43 9 61 6 26 3 34 -19 48 -19 13 -23 21 -16 30
33 40 -112 84 -305 91 -118 5 -133 4 -167 -15z"/>
<path d="M6878 5231 c-21 -10 -50 -29 -65 -40 -391 -300 -423 -338 -394 -471
24 -110 26 -115 56 -129 17 -8 36 -23 43 -33 13 -18 46 -23 77 -12 9 4 40 39
69 78 29 39 100 114 157 166 189 172 221 207 215 228 -4 11 0 24 8 32 14 10
14 15 0 35 -8 13 -12 33 -9 46 3 15 -3 41 -17 69 -21 41 -26 45 -63 47 -24 2
-55 -5 -77 -16z"/>
<path d="M9342 2876 c-218 -42 -508 -163 -599 -251 -69 -67 -78 -107 -34 -166
30 -42 30 -66 0 -84 -15 -10 19 -45 43 -45 17 0 19 -5 13 -30 -6 -27 -4 -30
17 -30 13 0 32 7 42 15 22 17 50 20 41 5 -12 -19 21 -10 98 29 110 55 307 120
307 101 0 -12 -39 -58 -145 -175 -106 -115 -258 -302 -285 -348 -32 -55 -51
-138 -60 -261 -9 -129 -4 -157 35 -188 13 -10 30 -31 37 -45 8 -16 40 -41 78
-62 63 -35 68 -36 165 -35 167 2 412 58 584 133 47 21 135 72 196 114 l110 76
120 0 c143 -1 233 22 401 100 220 104 316 217 366 428 13 56 -20 228 -58 301
-32 63 -123 151 -190 185 -117 59 -184 72 -380 72 l-180 0 -60 -30 c-49 -25
-63 -39 -84 -80 -33 -65 -53 -65 -63 0 -23 138 -69 229 -133 260 -51 24 -277
31 -382 11z m550 -447 c3 -24 7 -64 7 -88 1 -43 29 -96 69 -128 13 -11 13 -16
-3 -40 -10 -15 -29 -40 -42 -55 -37 -39 -74 -151 -62 -190 4 -17 6 -35 2 -40
-11 -19 -71 -37 -159 -48 -49 -6 -156 -25 -238 -41 -81 -17 -158 -29 -169 -27
-16 2 16 42 162 198 229 245 278 305 337 410 65 117 84 126 96 49z m518 -129
c41 -6 81 -16 88 -24 20 -20 8 -63 -28 -96 -46 -43 -189 -111 -237 -113 -51
-2 -53 0 -56 46 -3 38 -30 77 -54 77 -23 0 -14 29 20 66 47 52 117 63 267 44z"/>
<path d="M11262 2525 c-129 -56 -224 -200 -252 -382 -10 -65 -9 -74 9 -109 12
-22 21 -57 21 -81 0 -23 5 -45 11 -48 5 -4 14 -17 19 -29 9 -25 65 -56 100
-56 48 0 138 76 126 106 -3 8 1 35 9 61 8 27 15 58 15 70 0 12 13 37 28 55 69
80 112 152 112 185 0 19 5 43 11 55 6 11 8 31 5 44 -8 30 -73 104 -92 104 -8
0 -22 9 -31 20 -20 23 -45 25 -91 5z"/>
</g>
</svg>
